<svg xmlns="http://www.w3.org/2000/svg" xmlns:xlink="http://www.w3.org/1999/xlink" viewBox="0 0 200 200">
    <defs>
        <linearGradient id="linearGradient13">
            <stop style="stop-color:#23f6d9;stop-opacity:1;" offset="0" />
            <stop style="stop-color:#3cc1ec;stop-opacity:1;" offset="1" />
        </linearGradient>
        <linearGradient id="linearGradient11">
            <stop style="stop-color:#1d82f2;stop-opacity:1;" offset="0" />
            <stop style="stop-color:#3ac0eb;stop-opacity:1;" offset="1" />
        </linearGradient>
        <linearGradient xlink:href="#linearGradient11" id="linearGradient12" x1="216.43774" y1="262.22778"
            x2="227.56226" y2="273.35229" gradientUnits="userSpaceOnUse" spreadMethod="pad"
            gradientTransform="matrix(4.9999999,0,0,4.9999996,-807.99998,-991.16008)" />
        <linearGradient xlink:href="#linearGradient13" id="linearGradient14" x1="207" y1="267.79004" x2="237"
            y2="267.79004" gradientUnits="userSpaceOnUse"
            gradientTransform="matrix(4.9999999,0,0,4.9999996,-807.99998,-991.16008)" />
    </defs>
    <g transform="translate(-202,-247.79004)">
        <path style="fill:url(#linearGradient14);fill-opacity:1;stroke-width:10.3103;stroke-linejoin:bevel"
            d="M 296.45309,272.9902 A 74.999998,74.999992 0 0 0 227,347.58981 a 74.999998,74.999992 0 0 0 74.99999,75.00003 74.999998,74.999992 0 0 0 74.99999,-75.00003 74.999998,74.999992 0 0 0 -0.61524,-9.43361 l -22.207,3.68168 a 52.499998,52.499996 0 0 1 0.322,5.75193 52.499998,52.499996 0 0 1 -52.5,52.50003 52.499998,52.499996 0 0 1 -52.49999,-52.50003 52.499998,52.499996 0 0 1 48.0664,-52.10939 z" />
        <path style="fill:url(#linearGradient12);fill-opacity:1;stroke-width:11.3376;stroke-linejoin:bevel"
            d="m 301.9951,308.45895 a 39.332813,39.332811 0 0 0 -39.32616,39.3262 39.332813,39.332811 0 0 0 39.32616,39.33599 39.332813,39.332811 0 0 0 39.33594,-39.33599 39.332813,39.332811 0 0 0 -39.33594,-39.3262 z m 0,23.20318 a 16.130873,16.130873 0 0 1 16.13284,16.12302 16.130873,16.130873 0 0 1 -16.13284,16.13281 16.130873,16.130873 0 0 1 -16.12305,-16.13281 16.130873,16.130873 0 0 1 16.12305,-16.12302 z" />
        <circle style="fill:#238ff1;fill-opacity:1;stroke-width:13.1818;stroke-linejoin:bevel"
            cx="350.8623" cy="300.80276" r="13.593749" />
    </g>
</svg> 